<svg aria-hidden="true" style="position: absolute; width: 0; height: 0; overflow: hidden;" version="1.1" xmlns="http://www.w3.org/2000/svg" xmlns:xlink="http://www.w3.org/1999/xlink">
<defs>
<symbol id="icon-image" viewBox="0 0 43 32">
<path d="M11.864 12.386c0 2.197-1.781 3.977-3.977 3.977s-3.977-1.781-3.977-3.977c0-2.197 1.781-3.977 3.977-3.977s3.977 1.781 3.977 3.977z"></path>
<path d="M21.591 7.886c0 2.197-1.781 3.977-3.977 3.977s-3.977-1.781-3.977-3.977c0-2.197 1.781-3.977 3.977-3.977s3.977 1.781 3.977 3.977z"></path>
<path d="M38.636 24.114c0 2.197-1.781 3.977-3.977 3.977s-3.977-1.781-3.977-3.977c0-2.197 1.781-3.977 3.977-3.977s3.977 1.781 3.977 3.977z"></path>
</symbol>
</defs>
</svg>
